<?xml version="1.0" encoding="utf-8"?>
<!-- Generator: Adobe Illustrator 19.2.1, SVG Export Plug-In . SVG Version: 6.00 Build 0)  -->
<svg version="1.1" xmlns="http://www.w3.org/2000/svg" xmlns:xlink="http://www.w3.org/1999/xlink" x="0px" y="0px"
	 viewBox="0 0 850 198.3" style="enable-background:new 0 0 850 198.3;" xml:space="preserve">
<style type="text/css">
	.st0{display:none;}
	.st1{display:inline;}
	.st2{fill:#635E55;}
	.st3{fill:#C6C2BD;}
	.st4{fill:#868178;}
	.st5{fill:#F06519;}
	.st6{fill:#F06C21;}
	.st7{fill:#F1822E;}
	.st8{display:inline;fill:none;}
	.st9{display:inline;fill:#868178;}
	.st10{font-family:'Forza-Medium';}
	.st11{font-size:92.3977px;}
	.st12{fill:#E05801;}
	.st13{fill:#A7A7A7;}
</style>
<g id="Layer_2" class="st0">
	<g class="st1">
		<polygon class="st2" points="105.5,155.5 87.9,145.3 105.5,135.2 		"/>
		<polygon class="st2" points="87.9,165.7 105.5,155.5 87.9,145.3 		"/>
		<polygon class="st3" points="87.9,145.3 70.2,135.2 87.9,125 		"/>
		<polygon class="st3" points="87.9,145.3 105.5,135.2 87.9,125 		"/>
	</g>
	<g class="st1">
		<polygon class="st2" points="123.2,145.3 105.5,135.1 123.2,125 		"/>
		<polygon class="st2" points="105.5,155.5 123.2,145.3 105.5,135.1 		"/>
		<polygon class="st3" points="105.5,135.1 87.9,125 105.5,114.8 		"/>
		<polygon class="st3" points="105.5,135.1 123.2,125 105.5,114.8 		"/>
	</g>
	<g class="st1">
		<polygon class="st2" points="105.5,196.3 87.8,186.1 105.5,175.9 		"/>
		<polygon class="st2" points="87.8,206.5 105.5,196.3 87.8,186.1 		"/>
		<polygon class="st3" points="87.8,186.1 105.5,175.9 87.8,165.7 		"/>
	</g>
	<g class="st1">
		<polygon class="st2" points="123.1,186.1 105.5,175.9 123.1,165.7 		"/>
		<polygon class="st2" points="105.5,196.3 123.1,186.1 105.5,175.9 		"/>
		<polygon class="st3" points="105.5,175.9 87.9,165.7 105.5,155.5 		"/>
		<polygon class="st3" points="105.5,175.9 123.1,165.7 105.5,155.5 		"/>
	</g>
	<g class="st1">
		<polygon class="st2" points="87.8,165.7 70.2,155.5 87.8,145.4 		"/>
		<polygon class="st4" points="70.2,175.9 52.6,165.7 70.2,155.5 		"/>
		<polygon class="st2" points="70.2,175.9 87.8,165.7 70.2,155.5 		"/>
		<polygon class="st4" points="52.6,165.7 70.2,155.5 52.6,145.4 		"/>
		<polygon class="st3" points="70.2,155.5 52.6,145.4 70.2,135.2 		"/>
		<polygon class="st3" points="70.2,155.5 87.8,145.4 70.2,135.2 		"/>
	</g>
	<g class="st1">
		<polygon class="st5" points="193.6,165.7 175.9,155.5 193.6,145.3 		"/>
		<polygon class="st6" points="175.9,175.9 158.3,165.7 175.9,155.5 		"/>
		<polygon class="st5" points="175.9,175.9 193.6,165.7 175.9,155.5 		"/>
		<polygon class="st6" points="158.3,165.7 175.9,155.5 158.3,145.3 		"/>
		<polygon class="st7" points="175.9,155.5 158.3,145.3 175.9,135.1 		"/>
		<polygon class="st7" points="175.9,155.5 193.6,145.3 175.9,135.1 		"/>
	</g>
	<g class="st1">
		<polygon class="st5" points="193.6,186.1 175.9,175.9 193.6,165.7 		"/>
		<polygon class="st6" points="175.9,196.3 158.3,186.1 175.9,175.9 		"/>
		<polygon class="st5" points="175.9,196.3 193.6,186.1 175.9,175.9 		"/>
		<polygon class="st6" points="158.3,186.1 175.9,175.9 158.3,165.7 		"/>
	</g>
	<g class="st1">
		<polygon class="st6" points="140.7,176 123.1,165.8 140.7,155.6 		"/>
		<polygon class="st5" points="140.7,176 158.4,165.8 140.7,155.6 		"/>
		<polygon class="st6" points="123.1,165.8 140.7,155.6 123.1,145.4 		"/>
	</g>
	<g class="st1">
		<polygon class="st6" points="158.4,165.7 140.7,155.6 158.4,145.4 		"/>
		<polygon class="st6" points="140.7,155.6 158.4,145.4 140.7,135.2 		"/>
		<polygon class="st7" points="158.4,145.4 140.7,135.2 158.4,125 		"/>
		<polygon class="st7" points="158.4,145.4 176,135.2 158.4,125 		"/>
	</g>
	<g class="st1">
		<polygon class="st6" points="140.7,155.6 123.1,145.4 140.7,135.2 		"/>
		<polygon class="st6" points="123.1,145.4 140.7,135.2 123.1,125 		"/>
		<polygon class="st7" points="140.7,135.2 123.1,125 140.7,114.9 		"/>
		<polygon class="st7" points="140.7,135.2 158.4,125 140.7,114.9 		"/>
	</g>
	<g class="st1">
		<polygon class="st5" points="193.6,206.4 175.9,196.2 193.6,186.1 		"/>
		<polygon class="st6" points="175.9,216.6 158.3,206.4 175.9,196.2 		"/>
		<polygon class="st5" points="175.9,216.6 193.6,206.4 175.9,196.2 		"/>
		<polygon class="st6" points="158.3,206.4 175.9,196.2 158.3,186.1 		"/>
	</g>
	<g class="st1">
		<polygon class="st6" points="158.4,206.5 140.7,196.3 158.4,186.1 		"/>
		<polygon class="st6" points="140.7,196.3 158.4,186.1 140.7,175.9 		"/>
		<polygon class="st7" points="158.4,186.1 140.7,175.9 158.4,165.7 		"/>
	</g>
	<g class="st1">
		<polygon class="st6" points="140.7,196.3 123.1,186.1 140.7,175.9 		"/>
		<polygon class="st6" points="123.1,186.1 140.7,175.9 123.1,165.8 		"/>
	</g>
	<g class="st1">
		<polygon class="st2" points="87.8,186.1 70.2,175.9 87.8,165.8 		"/>
		<polygon class="st4" points="70.2,196.3 52.6,186.1 70.2,175.9 		"/>
		<polygon class="st2" points="70.2,196.3 87.8,186.1 70.2,175.9 		"/>
		<polygon class="st4" points="52.6,186.1 70.2,175.9 52.6,165.8 		"/>
	</g>
	<g class="st1">
		<polygon class="st2" points="87.8,206.5 70.2,196.3 87.8,186.1 		"/>
		<polygon class="st4" points="70.2,216.7 52.6,206.5 70.2,196.3 		"/>
		<polygon class="st2" points="70.2,216.7 87.8,206.5 70.2,196.3 		"/>
		<polygon class="st4" points="52.6,206.5 70.2,196.3 52.6,186.1 		"/>
	</g>
	<g class="st1">
		<polygon class="st2" points="102.6,426.9 85,416.7 102.6,406.5 		"/>
		<polygon class="st2" points="85,437.1 102.6,426.9 85,416.7 		"/>
		<polygon class="st3" points="85,416.7 67.3,406.5 85,396.4 		"/>
		<polygon class="st3" points="85,416.7 102.6,406.5 85,396.4 		"/>
	</g>
	<g class="st1">
		<polygon class="st2" points="120.2,416.7 102.6,406.5 120.2,396.3 		"/>
		<polygon class="st2" points="102.6,426.9 120.2,416.7 102.6,406.5 		"/>
		<polygon class="st3" points="102.6,406.5 85,396.3 102.6,386.2 		"/>
		<polygon class="st3" points="102.6,406.5 120.2,396.3 102.6,386.2 		"/>
	</g>
	<g class="st1">
		<polygon class="st2" points="102.6,467.7 84.9,457.5 102.6,447.3 		"/>
		<polygon class="st2" points="84.9,477.8 102.6,467.7 84.9,457.5 		"/>
		<polygon class="st3" points="84.9,457.5 102.6,447.3 84.9,437.1 		"/>
	</g>
	<g class="st1">
		<polygon class="st2" points="120.2,457.5 102.6,447.3 120.2,437.1 		"/>
		<polygon class="st2" points="102.6,467.6 120.2,457.5 102.6,447.3 		"/>
		<polygon class="st3" points="102.6,447.3 84.9,437.1 102.6,426.9 		"/>
		<polygon class="st3" points="102.6,447.3 120.2,437.1 102.6,426.9 		"/>
	</g>
	<g class="st1">
		<polygon class="st2" points="84.9,437.1 67.3,426.9 84.9,416.7 		"/>
		<polygon class="st4" points="67.3,447.3 49.7,437.1 67.3,426.9 		"/>
		<polygon class="st2" points="67.3,447.3 84.9,437.1 67.3,426.9 		"/>
		<polygon class="st4" points="49.7,437.1 67.3,426.9 49.7,416.7 		"/>
		<polygon class="st3" points="67.3,426.9 49.7,416.7 67.3,406.6 		"/>
		<polygon class="st3" points="67.3,426.9 84.9,416.7 67.3,406.6 		"/>
	</g>
	<g class="st1">
		<polygon class="st5" points="197.6,437.1 180,426.9 197.6,416.7 		"/>
		<polygon class="st6" points="180,447.3 162.4,437.1 180,426.9 		"/>
		<polygon class="st5" points="180,447.3 197.6,437.1 180,426.9 		"/>
		<polygon class="st6" points="162.4,437.1 180,426.9 162.4,416.7 		"/>
		<polygon class="st7" points="180,426.9 162.4,416.7 180,406.5 		"/>
		<polygon class="st7" points="180,426.9 197.6,416.7 180,406.5 		"/>
	</g>
	<g class="st1">
		<polygon class="st5" points="197.6,457.5 180,447.3 197.6,437.1 		"/>
		<polygon class="st6" points="180,467.6 162.4,457.5 180,447.3 		"/>
		<polygon class="st5" points="180,467.6 197.6,457.5 180,447.3 		"/>
		<polygon class="st6" points="162.4,457.5 180,447.3 162.4,437.1 		"/>
	</g>
	<g class="st1">
		<polygon class="st6" points="144.8,447.3 127.2,437.2 144.8,427 		"/>
		<polygon class="st5" points="144.8,447.3 162.4,437.2 144.8,427 		"/>
		<polygon class="st6" points="127.2,437.2 144.8,427 127.2,416.8 		"/>
	</g>
	<g class="st1">
		<polygon class="st6" points="162.4,437.1 144.8,426.9 162.4,416.8 		"/>
		<polygon class="st6" points="144.8,426.9 162.4,416.8 144.8,406.6 		"/>
		<polygon class="st7" points="162.4,416.8 144.8,406.6 162.4,396.4 		"/>
		<polygon class="st7" points="162.4,416.8 180.1,406.6 162.4,396.4 		"/>
	</g>
	<g class="st1">
		<polygon class="st6" points="144.8,427 127.1,416.8 144.8,406.6 		"/>
		<polygon class="st6" points="127.1,416.8 144.8,406.6 127.1,396.4 		"/>
		<polygon class="st7" points="144.8,406.6 127.1,396.4 144.8,386.2 		"/>
		<polygon class="st7" points="144.8,406.6 162.4,396.4 144.8,386.2 		"/>
	</g>
	<g class="st1">
		<polygon class="st5" points="197.6,477.8 180,467.6 197.6,457.4 		"/>
		<polygon class="st6" points="180,488 162.4,477.8 180,467.6 		"/>
		<polygon class="st5" points="180,488 197.6,477.8 180,467.6 		"/>
		<polygon class="st6" points="162.4,477.8 180,467.6 162.4,457.4 		"/>
	</g>
	<g class="st1">
		<polygon class="st6" points="162.4,477.8 144.8,467.7 162.4,457.5 		"/>
		<polygon class="st6" points="144.8,467.7 162.4,457.5 144.8,447.3 		"/>
		<polygon class="st7" points="162.4,457.5 144.8,447.3 162.4,437.1 		"/>
	</g>
	<g class="st1">
		<polygon class="st6" points="144.8,467.7 127.1,457.5 144.8,447.3 		"/>
		<polygon class="st6" points="127.1,457.5 144.8,447.3 127.1,437.1 		"/>
	</g>
	<g class="st1">
		<polygon class="st2" points="84.9,457.5 67.3,447.3 84.9,437.1 		"/>
		<polygon class="st4" points="67.3,467.7 49.7,457.5 67.3,447.3 		"/>
		<polygon class="st2" points="67.3,467.7 84.9,457.5 67.3,447.3 		"/>
		<polygon class="st4" points="49.7,457.5 67.3,447.3 49.7,437.1 		"/>
	</g>
	<g class="st1">
		<polygon class="st2" points="84.9,477.9 67.3,467.7 84.9,457.5 		"/>
		<polygon class="st4" points="67.3,488 49.7,477.9 67.3,467.7 		"/>
		<polygon class="st2" points="67.3,488 84.9,477.9 67.3,467.7 		"/>
		<polygon class="st4" points="49.7,477.9 67.3,467.7 49.7,457.5 		"/>
	</g>
	<rect x="244.1" y="128.6" class="st8" width="558.8" height="88.3"/>
	<text transform="matrix(1 0 0 1 244.0747 195.0845)" class="st9 st10 st11">code orange</text>
	<rect x="245.2" y="401.7" class="st8" width="558.8" height="88.3"/>
	<text transform="matrix(1 0 0 1 245.2363 468.2104)" class="st1"><tspan x="0" y="0" class="st7 st10 st11">code</tspan><tspan x="214.2" y="0" class="st4 st10 st11"> orange</tspan></text>
</g>
<g id="Laag_1">
	<g>
		<polygon class="st6" points="112.4,87.6 92.4,76 112.4,64.5 		"/>
		<polygon class="st6" points="92.4,76 112.4,64.5 92.4,52.9 		"/>
		<polygon class="st3" points="112.4,64.5 92.4,52.9 112.4,41.3 		"/>
		<polygon class="st7" points="112.4,64.5 132.4,52.9 112.4,41.3 		"/>
	</g>
	<g>
		<polygon class="st3" points="112.4,110.7 92.4,99.1 112.4,87.6 		"/>
		<polygon class="st12" points="112.4,110.7 132.4,99.1 112.4,87.6 		"/>
		<polygon class="st6" points="92.4,99.1 112.4,87.6 92.4,76 		"/>
	</g>
	<g>
		<polygon class="st6" points="112.3,133.8 92.3,122.2 112.3,110.6 		"/>
		<polygon class="st6" points="92.3,122.2 112.3,110.6 92.3,99.1 		"/>
	</g>
	<g>
		<polygon class="st2" points="112.4,87.5 92.4,76 112.4,64.4 		"/>
		<polygon class="st2" points="92.4,99.1 112.4,87.5 92.4,76 		"/>
		<polygon class="st3" points="92.4,76 72.4,64.4 92.4,52.9 		"/>
		<polygon class="st3" points="92.4,76 112.4,64.4 92.4,52.9 		"/>
	</g>
	<g>
		<polygon class="st2" points="112.3,133.8 92.3,122.2 112.3,110.7 		"/>
		<polygon class="st2" points="92.3,145.3 112.3,133.8 92.3,122.2 		"/>
		<polygon class="st3" points="92.3,122.2 112.3,110.7 92.3,99.1 		"/>
	</g>
	<g>
		<polygon class="st2" points="92.4,99.1 72.3,87.6 92.4,76 		"/>
		<polygon class="st4" points="72.3,110.7 52.3,99.1 72.3,87.6 		"/>
		<polygon class="st2" points="72.3,110.7 92.4,99.1 72.3,87.6 		"/>
		<polygon class="st4" points="52.3,99.1 72.3,87.6 52.3,76 		"/>
		<polygon class="st3" points="72.3,87.6 52.3,76 72.3,64.5 		"/>
		<polygon class="st3" points="72.3,87.6 92.4,76 72.3,64.5 		"/>
	</g>
	<g>
		<polygon class="st12" points="172.3,99 152.3,87.5 172.3,75.9 		"/>
		<polygon class="st6" points="152.3,110.6 132.3,99 152.3,87.5 		"/>
		<polygon class="st12" points="152.3,110.6 172.3,99 152.3,87.5 		"/>
		<polygon class="st6" points="132.3,99 152.3,87.5 132.3,75.9 		"/>
		<polygon class="st7" points="152.3,87.5 132.3,75.9 152.3,64.4 		"/>
		<polygon class="st7" points="152.3,87.5 172.3,75.9 152.3,64.4 		"/>
	</g>
	<g>
		<polygon class="st12" points="172.3,122.1 152.3,110.6 172.3,99 		"/>
		<polygon class="st6" points="152.3,133.7 132.3,122.1 152.3,110.6 		"/>
		<polygon class="st12" points="152.3,133.7 172.3,122.1 152.3,110.6 		"/>
		<polygon class="st6" points="132.3,122.1 152.3,110.6 132.3,99 		"/>
	</g>
	<g>
		<polygon class="st6" points="132.4,99.1 112.4,87.5 132.4,76 		"/>
		<polygon class="st6" points="112.4,87.5 132.4,76 112.4,64.4 		"/>
		<polygon class="st7" points="132.4,76 112.4,64.4 132.4,52.9 		"/>
		<polygon class="st7" points="132.4,76 152.4,64.4 132.4,52.9 		"/>
	</g>
	<g>
		<polygon class="st12" points="172.3,145.2 152.3,133.7 172.3,122.1 		"/>
		<polygon class="st6" points="152.3,156.8 132.3,145.2 152.3,133.7 		"/>
		<polygon class="st12" points="152.3,156.8 172.3,145.2 152.3,133.7 		"/>
		<polygon class="st6" points="132.3,145.2 152.3,133.7 132.3,122.1 		"/>
	</g>
	<g>
		<polygon class="st6" points="132.4,145.3 112.4,133.7 132.4,122.2 		"/>
		<polygon class="st6" points="112.4,133.7 132.4,122.2 112.4,110.6 		"/>
		<polygon class="st7" points="132.4,122.2 112.4,110.6 132.4,99.1 		"/>
	</g>
	<g>
		<polygon class="st2" points="92.3,122.2 72.3,110.7 92.3,99.1 		"/>
		<polygon class="st4" points="72.3,133.8 52.3,122.2 72.3,110.7 		"/>
		<polygon class="st2" points="72.3,133.8 92.3,122.2 72.3,110.7 		"/>
		<polygon class="st4" points="52.3,122.2 72.3,110.7 52.3,99.1 		"/>
	</g>
	<g>
		<polygon class="st2" points="92.3,145.3 72.3,133.8 92.3,122.2 		"/>
		<polygon class="st4" points="72.3,156.9 52.3,145.3 72.3,133.8 		"/>
		<polygon class="st2" points="72.3,156.9 92.3,145.3 72.3,133.8 		"/>
		<polygon class="st4" points="52.3,145.3 72.3,133.8 52.3,122.2 		"/>
	</g>
	<g>
		<path class="st13" d="M257.7,107.6c0,11.2-1,14.3-3.7,17c-1.6,1.6-4.1,2.7-8.8,2.7h-16.5c-5.3,0-8.5-0.9-10.7-3.1
			c-3.5-3.5-4.5-7.7-4.5-23.9c0-16.2,1-20.4,4.5-23.9c2.2-2.2,5.4-3.1,10.7-3.1h16.4c4.9,0,7.1,1,8.8,2.7c2.6,2.6,3.6,6.2,3.6,16.3
			h-10.1c-0.2-7-0.6-8.2-1.2-8.8s-1.4-0.9-3.7-0.9H230c-3.1,0-3.9,0.3-4.6,1c-1,1-1.5,2.9-1.5,16.7s0.5,15.7,1.5,16.7
			c0.7,0.7,1.5,1,4.6,1h12.6c2.2,0,3.2-0.2,3.9-0.9c0.7-0.7,1.1-2.7,1.1-9.5H257.7z"/>
		<path class="st13" d="M273.5,124.2c-3.5-3.5-4.5-7.7-4.5-23.9c0-16.2,1-20.4,4.5-23.9c2.2-2.2,5.4-3.1,10.7-3.1h15.9
			c5.3,0,8.5,0.9,10.7,3.1c3.5,3.5,4.5,7.7,4.5,23.9c0,16.2-1,20.4-4.5,23.9c-2.2,2.2-5.4,3.1-10.7,3.1h-15.9
			C278.9,127.3,275.7,126.4,273.5,124.2z M280.9,117c0.7,0.7,1.5,1,4.6,1h13.3c3.1,0,3.9-0.3,4.6-1c1-1,1.5-2.9,1.5-16.7
			s-0.5-15.7-1.5-16.7c-0.7-0.7-1.5-1-4.6-1h-13.3c-3.1,0-3.9,0.3-4.6,1c-1,1-1.5,2.9-1.5,16.7S279.9,116,280.9,117z"/>
		<path class="st13" d="M363.8,127.3v-6.5c-6.8,5.5-9.1,6.6-13.5,6.6H343c-5.8,0-8.7-1-11-3.3c-2.9-2.9-4.3-7-4.3-23.8
			c0-16.8,1.4-20.9,4.3-23.8c2.3-2.3,5.2-3.3,11-3.3h7.3c4.4,0,6.6,1,13.5,6.6V55.3h10.4v72H363.8z M363.8,114.9V85.5
			c-4.1-2.1-6.8-3-10.1-3h-8.2c-3.3,0-4.6,0.4-5.5,1.3c-1.5,1.5-1.9,4.4-1.9,16.5c0,12.1,0.4,15,1.9,16.5c0.9,0.9,2.2,1.3,5.5,1.3
			h7.8C356.6,118.1,359.5,117.2,363.8,114.9z"/>
		<path class="st13" d="M398.3,103.7c0.1,10.6,0.7,12.7,1.5,13.5c0.8,0.8,1.5,1,4.6,1h14c2.3,0,3-0.4,3.6-1c0.7-0.7,0.9-1.9,1.1-6.7
			h10.1c-0.2,8.4-1,11.4-3.7,14.1c-1.7,1.7-4,2.7-8.8,2.7h-17.5c-5.3,0-8.5-0.9-10.7-3.1c-3.5-3.5-4.5-7.7-4.5-23.9
			c0-16.2,1-20.4,4.5-23.9c2.2-2.2,5.4-3.1,10.7-3.1H418c5.3,0,8.7,1,10.7,3c3.5,3.5,4.5,7.7,4.5,23.5v2.7c0,0.8-0.3,1.2-1.2,1.2
			H398.3z M398.3,95.4h24.6c0-9.1-0.6-11.1-1.5-12c-0.6-0.6-1.5-1-4.6-1h-12.4c-3.1,0-3.9,0.3-4.7,1.1
			C398.8,84.4,398.4,86.2,398.3,95.4z"/>
		<path class="st13" d="M472.3,124.2c-3.5-3.5-4.5-7.7-4.5-23.9c0-16.2,1-20.4,4.5-23.9c2.2-2.2,5.4-3.1,10.7-3.1h15.9
			c5.3,0,8.5,0.9,10.7,3.1c3.5,3.5,4.5,7.7,4.5,23.9c0,16.2-1,20.4-4.5,23.9c-2.2,2.2-5.4,3.1-10.7,3.1H483
			C477.7,127.3,474.5,126.4,472.3,124.2z M479.7,117c0.7,0.7,1.5,1,4.6,1h13.3c3.1,0,3.9-0.3,4.6-1c1-1,1.5-2.9,1.5-16.7
			s-0.5-15.7-1.5-16.7c-0.7-0.7-1.5-1-4.6-1h-13.3c-3.1,0-3.9,0.3-4.6,1c-1,1-1.5,2.9-1.5,16.7S478.7,116,479.7,117z"/>
		<path class="st13" d="M527.9,127.3v-54h10.4v7.9c5.3-5.6,8.2-8,12.5-8h6.4v10.7h-7.6c-4,0-7.1,0.4-11.3,2v41.4H527.9z"/>
		<path class="st13" d="M570,76.3c2.1-2.1,4.3-3,9.1-3h16.6c6.1,0,8.7,1.1,10.5,2.9c2.5,2.5,3.1,5.1,3.1,14.7v36.4H599v-6.6
			c-6.5,5.4-8.4,6.7-13.2,6.7h-8.4c-4.9,0-7.5-0.6-9.7-2.8c-1.9-1.9-3.2-5-3.2-11.8c0-6.4,1.2-10.6,3.3-12.7
			c2.4-2.4,4.8-3.9,17.9-3.9c5.3,0,10.1,0.5,13.3,1.5v-6c0-6.3-0.4-7.9-1.2-8.7c-0.7-0.7-1.8-0.9-4.7-0.9h-10.8
			c-2.5,0-3.6,0.2-4.3,0.9c-0.8,0.8-1,2.6-1.2,6.7h-10.1C566.8,81.5,567.9,78.4,570,76.3z M599,115.2V104h-14c-6.8,0-8.1,0.5-9,1.4
			c-1,1-1.3,2.2-1.3,5.7c0,4,0.2,5.8,1,6.6c0.7,0.7,1.8,0.8,4.2,0.8h7.7C591.6,118.5,594,117.9,599,115.2z"/>
		<path class="st13" d="M624.2,127.3v-54h10.4v6.5c6.8-5.6,9-6.6,13.5-6.6h8.5c4.7,0,7.3,1.1,9.3,3.1c2.1,2.1,3.2,4.7,3.2,12.2v38.8
			h-10.4V89.2c0-2.6-0.4-4.2-1.4-5.2c-1.1-1.1-2.1-1.5-5.6-1.5h-7c-3.3,0-6.1,1-10.1,3v41.8H624.2z"/>
		<path class="st13" d="M695.9,142.3c-4.6,0-7-1-8.8-2.8c-2-2-2.9-4.8-2.9-10.6h10.4c0.1,2.4,0.4,3.3,1.1,4c0.6,0.6,1.4,0.8,4.1,0.8
			h13.1c2.9,0,4-0.2,4.7-0.9c0.8-0.8,1.1-1.7,1.1-6.7v-11.2c-6.9,5.5-9.1,6.5-13.5,6.5H698c-5.8,0-8.7-1-11-3.3
			c-2.9-2.9-4.3-6.1-4.3-20.8c0-14.7,1.4-17.9,4.3-20.8c2.3-2.3,5.2-3.3,11-3.3h7.2c4.4,0,6.6,1,13.5,6.6v-6.5h10.4v51.4
			c0,9.6-0.9,12.2-3.4,14.7c-1.8,1.8-4.4,2.9-10.5,2.9H695.9z M718.7,109.2V85.6c-4.2-2.2-7.2-3.2-10.5-3.2h-7.7
			c-3.3,0-4.6,0.4-5.5,1.3c-1.5,1.5-1.9,2.9-1.9,13.6s0.4,12.1,1.9,13.6c0.9,0.9,2.2,1.3,5.5,1.3h8.1
			C711.8,112.2,714.7,111.3,718.7,109.2z"/>
		<path class="st13" d="M753.2,103.7c0.1,10.6,0.7,12.7,1.5,13.5c0.8,0.8,1.5,1,4.6,1h14c2.3,0,3-0.4,3.6-1c0.7-0.7,0.9-1.9,1.1-6.7
			h10.1c-0.2,8.4-1,11.4-3.7,14.1c-1.7,1.7-4,2.7-8.8,2.7h-17.5c-5.3,0-8.5-0.9-10.7-3.1c-3.5-3.5-4.5-7.7-4.5-23.9
			c0-16.2,1-20.4,4.5-23.9c2.2-2.2,5.4-3.1,10.7-3.1h14.8c5.3,0,8.7,1,10.7,3c3.5,3.5,4.5,7.7,4.5,23.5v2.7c0,0.8-0.3,1.2-1.2,1.2
			H753.2z M753.2,95.4h24.6c0-9.1-0.6-11.1-1.5-12c-0.6-0.6-1.5-1-4.6-1h-12.4c-3.1,0-3.9,0.3-4.7,1.1
			C753.7,84.4,753.3,86.2,753.2,95.4z"/>
	</g>
</g>
</svg>
