<?xml version="1.0" encoding="UTF-8" standalone="no"?>
<svg
   xmlns:dc="http://purl.org/dc/elements/1.1/"
   xmlns:cc="http://creativecommons.org/ns#"
   xmlns:rdf="http://www.w3.org/1999/02/22-rdf-syntax-ns#"
   xmlns:svg="http://www.w3.org/2000/svg"
   xmlns="http://www.w3.org/2000/svg"
   xmlns:sodipodi="http://sodipodi.sourceforge.net/DTD/sodipodi-0.dtd"
   xmlns:inkscape="http://www.inkscape.org/namespaces/inkscape"
   version="1.1"
   x="0px"
   y="0px"
   viewBox="0 0 0 50.167042"
   enable-background="new 0 0 100 100"
   xml:space="preserve"
   id="svg2"
   inkscape:version="0.91 r13725"
   sodipodi:docname="logo.svg"
   width="69.637009"
   height="69.637009"
   inkscape:export-filename="D:\home\tim\werk\gmail-id\res\logo96.png"
   inkscape:export-xdpi="124.07"
   inkscape:export-ydpi="124.07"><metadata
     id="metadata20"><rdf:RDF><cc:Work
         rdf:about=""><dc:format>image/svg+xml</dc:format><dc:type
           rdf:resource="http://purl.org/dc/dcmitype/StillImage" /><dc:title></dc:title></cc:Work></rdf:RDF></metadata><defs
     id="defs18" /><sodipodi:namedview
     pagecolor="#ffffff"
     bordercolor="#666666"
     borderopacity="1"
     objecttolerance="10"
     gridtolerance="10"
     guidetolerance="10"
     inkscape:pageopacity="0"
     inkscape:pageshadow="2"
     inkscape:window-width="1920"
     inkscape:window-height="1027"
     id="namedview16"
     showgrid="true"
     showguides="false"
     inkscape:zoom="6.675088"
     inkscape:cx="-0.92854198"
     inkscape:cy="39.498737"
     inkscape:window-x="1912"
     inkscape:window-y="-8"
     inkscape:window-maximized="1"
     inkscape:current-layer="g4160"
     fit-margin-top="0"
     fit-margin-left="0"
     fit-margin-right="0"
     fit-margin-bottom="0"><inkscape:grid
       type="xygrid"
       id="grid4204"
       originx="-15.459995"
       originy="-25.536972" /></sodipodi:namedview><path
     d="m 51.222005,33.529863 -16.386,12.555 -16.428,-12.503 -18.35200012,18.25 0.013,5.547 c 0.002,1.598 1.38900002,2.888 3.08900002,2.881 l 63.3970001,-0.102 c 1.705,0.005 3.084,-1.289 3.082,-2.887 l -0.008,-5.539 -18.407,-18.202 z"
     id="path4"
     style="fill:#f1822e;fill-opacity:1"
     inkscape:connector-curvature="0" /><polygon
     points="15.506,59.205 29.972,44.821 15.469,33.781 "
     id="polygon6"
     style="fill:#f1822e;fill-opacity:1"
     transform="translate(-15.459995,-14.203137)" /><polygon
     points="85.04,33.678 70.572,44.76 85.078,59.097 "
     id="polygon8"
     style="fill:#f1822e;fill-opacity:1"
     transform="translate(-15.459995,-14.203137)" /><g
     id="g10"
     transform="translate(-15.459995,-4.8260208)"><g
       id="g4160"
       style="fill:#ff7f2a"><g
         id="g4189"
         style="fill:#f1822e;fill-opacity:1"
         transform="translate(0,-9.3771186)"><g
           id="g4178"
           style="fill:#f1822e;fill-opacity:1"><g
             id="g4167"
             style="fill:#f1822e;fill-opacity:1"><rect
               y="32.884781"
               x="36.703636"
               height="8.5392132"
               width="5.8426194"
               id="rect4154"
               style="opacity:1;fill:#f1822e;fill-opacity:1;fill-rule:nonzero;stroke:none;stroke-width:1;stroke-linecap:butt;stroke-linejoin:miter;stroke-miterlimit:4;stroke-dasharray:none;stroke-dashoffset:0;stroke-opacity:1" /><rect
               y="40.225506"
               x="39.999474"
               height="5.5429983"
               width="16.628994"
               id="rect4156"
               style="opacity:1;fill:#f1822e;fill-opacity:1;fill-rule:nonzero;stroke:none;stroke-width:1;stroke-linecap:butt;stroke-linejoin:miter;stroke-miterlimit:4;stroke-dasharray:none;stroke-dashoffset:0;stroke-opacity:1" /><path
               style="fill:#f1822e;fill-opacity:1"
               d="m 81.941,24.296 -63.399,0.093 c -1.704,0.004 -3.085,1.295 -3.082,2.893 l 0,1.239 34.828,26.508 34.743,-26.612 0,-1.239 c -0.004,-1.599 -1.388,-2.887 -3.09,-2.882 z M 60.73,37.464 c -0.323,0.896 -0.776,1.703 -1.365,2.422 -0.594,0.715 -1.299,1.294 -2.135,1.743 -0.834,0.45 -1.764,0.68 -2.779,0.698 -1.158,-0.002 -2.042,-0.279 -2.644,-0.843 -0.478,0.226 -0.979,0.42 -1.501,0.595 -0.523,0.169 -1.185,0.254 -1.979,0.259 -0.51,-0.002 -0.988,-0.073 -1.429,-0.217 -0.443,-0.139 -0.838,-0.357 -1.171,-0.665 -0.334,-0.301 -0.601,-0.688 -0.797,-1.146 -0.201,-0.46 -0.303,-1.012 -0.306,-1.651 0,-1.012 0.181,-1.937 0.537,-2.776 0.351,-0.844 0.843,-1.57 1.464,-2.185 0.614,-0.611 1.332,-1.085 2.151,-1.427 0.82,-0.348 1.694,-0.52 2.637,-0.52 0.714,-0.005 1.414,0.046 2.108,0.144 0.689,0.094 1.338,0.248 1.943,0.454 l -1.518,7.568 c 0.162,0.118 0.426,0.174 0.794,0.171 0.584,0.003 1.106,-0.162 1.569,-0.487 0.463,-0.329 0.844,-0.757 1.155,-1.277 0.304,-0.52 0.542,-1.097 0.701,-1.733 0.153,-0.625 0.233,-1.251 0.233,-1.863 -0.002,-1.705 -0.562,-3.012 -1.674,-3.919 -1.113,-0.908 -2.68,-1.355 -4.695,-1.354 -1.564,0.002 -2.947,0.253 -4.159,0.751 -1.217,0.5 -2.244,1.17 -3.075,2.013 -0.833,0.839 -1.47,1.813 -1.903,2.905 -0.434,1.094 -0.653,2.227 -0.653,3.402 0.002,1.073 0.174,1.988 0.521,2.746 0.341,0.753 0.806,1.377 1.395,1.86 0.588,0.479 1.276,0.833 2.063,1.051 0.787,0.227 1.627,0.335 2.515,0.335 0.829,-0.005 1.594,-0.051 2.292,-0.148 0.7,-0.097 1.333,-0.249 1.909,-0.46 0.141,0.328 0.278,0.667 0.406,1.012 0.124,0.349 0.242,0.694 0.334,1.038 -0.281,0.133 -0.632,0.259 -1.024,0.37 -0.4,0.11 -0.831,0.202 -1.289,0.269 -0.461,0.067 -0.949,0.121 -1.467,0.16 -0.519,0.04 -1.027,0.061 -1.538,0.061 -1.223,0 -2.383,-0.161 -3.478,-0.485 -1.102,-0.328 -2.06,-0.827 -2.889,-1.51 -0.827,-0.674 -1.479,-1.518 -1.961,-2.542 -0.477,-1.025 -0.719,-2.249 -0.72,-3.662 0,-1.325 0.253,-2.657 0.774,-4.017 0.508,-1.356 1.301,-2.573 2.362,-3.675 1.057,-1.097 2.419,-1.986 4.062,-2.682 1.642,-0.695 3.596,-1.048 5.851,-1.052 1.209,0.001 2.353,0.153 3.424,0.452 1.067,0.31 2.012,0.771 2.815,1.397 0.801,0.623 1.439,1.401 1.909,2.348 0.466,0.948 0.703,2.056 0.708,3.33 0.006,0.93 -0.158,1.838 -0.483,2.742 z"
               id="path12"
               inkscape:connector-curvature="0" /><rect
               style="opacity:1;fill:#f1822e;fill-opacity:1;fill-rule:nonzero;stroke:none;stroke-width:1;stroke-linecap:butt;stroke-linejoin:miter;stroke-miterlimit:4;stroke-dasharray:none;stroke-dashoffset:0;stroke-opacity:1"
               id="rect4152"
               width="21.872372"
               height="17.82748"
               x="39.40023"
               y="26.742538" /><rect
               style="opacity:1;fill:#f1822e;fill-opacity:1;fill-rule:nonzero;stroke:none;stroke-width:1;stroke-linecap:butt;stroke-linejoin:miter;stroke-miterlimit:4;stroke-dasharray:none;stroke-dashoffset:0;stroke-opacity:1"
               id="rect4158"
               width="13.78259"
               height="7.0411057"
               x="42.546257"
               y="41.873425" /></g><rect
             style="opacity:1;fill:#f1822e;fill-opacity:1;fill-rule:nonzero;stroke:none;stroke-width:1;stroke-linecap:butt;stroke-linejoin:miter;stroke-miterlimit:4;stroke-dasharray:none;stroke-dashoffset:0;stroke-opacity:1"
             id="rect4174"
             width="8.689024"
             height="8.2395916"
             x="36.104393"
             y="33.933456" /></g><rect
           y="42.322857"
           x="40.299095"
           height="4.344512"
           width="5.0935659"
           id="rect4187"
           style="opacity:1;fill:#f1822e;fill-opacity:1;fill-rule:nonzero;stroke:none;stroke-width:1;stroke-linecap:butt;stroke-linejoin:miter;stroke-miterlimit:4;stroke-dasharray:none;stroke-dashoffset:0;stroke-opacity:1" /></g><text
         xml:space="preserve"
         style="font-style:normal;font-variant:normal;font-weight:normal;font-stretch:normal;font-size:17.5px;line-height:125%;font-family:Forza;-inkscape-font-specification:Forza;letter-spacing:0px;word-spacing:0px;fill:#635e55;fill-opacity:1;stroke:none;stroke-width:1px;stroke-linecap:butt;stroke-linejoin:miter;stroke-opacity:1"
         x="39.40023"
         y="35.34269"
         id="text4200"
         sodipodi:linespacing="125%"><tspan
           sodipodi:role="line"
           id="tspan4202"
           x="39.40023"
           y="35.34269"
           style="font-size:22.5px;fill:#635e55;fill-opacity:1">ID</tspan></text>
</g></g></svg>